<svg width="24" height="24" viewBox="0 0 24 24" fill="none" xmlns="http://www.w3.org/2000/svg">
<rect width="24" height="24" fill="white"/>
<path d="M18 7H6V9H18V7Z" fill="#D24C00" fill-opacity="0.3"/>
<path d="M18 13H6V17H18V13Z" fill="#D24C00" fill-opacity="0.3"/>
<path fill-rule="evenodd" clip-rule="evenodd" d="M8 2C8.55228 2 9 2.44772 9 3V4H15V3C15 2.44772 15.4477 2 16 2C16.5523 2 17 2.44772 17 3V4H19C20.1046 4 21 4.89543 21 6V18C21 19.1046 20.1046 20 19 20H5C3.89543 20 3 19.1046 3 18V6C3 4.89543 3.89543 4 5 4H7V3C7 2.44772 7.44772 2 8 2ZM5 6V10H19V6H5ZM19 12H5V18H19V12Z" fill="#D24C00"/>
</svg>
