<svg width="24" height="24" viewBox="0 0 24 24" fill="none" xmlns="http://www.w3.org/2000/svg">
<rect width="24" height="24" fill="white"/>
<path fill-rule="evenodd" clip-rule="evenodd" d="M12 5.3744L6 11.0315V18H18V11.0315L12 5.3744ZM11.1768 3.40178C11.6391 2.96592 12.3609 2.96592 12.8232 3.40178L19.6232 9.8132C19.8637 10.0399 20 10.3558 20 10.6863V18.8C20 19.4627 19.4627 20 18.8 20H5.2C4.53726 20 4 19.4627 4 18.8V10.6863C4 10.3558 4.13631 10.0399 4.37678 9.8132L11.1768 3.40178Z" fill="#D24C00"/>
<path d="M11.8609 7.13465L7.0609 11.7811C7.02197 11.8187 7 11.8706 7 11.9248V16.8C7 16.9105 7.08954 17 7.2 17H16.8C16.9105 17 17 16.9105 17 16.8V11.9248C17 11.8706 16.978 11.8187 16.9391 11.7811L12.1391 7.13465C12.0616 7.05959 11.9384 7.05959 11.8609 7.13465Z" fill="#D24C00" fill-opacity="0.4"/>
</svg>
