<svg width="122" height="36" viewBox="0 0 122 36" fill="current" xmlns="http://www.w3.org/2000/svg">
<g clip-path="url(#clip0_26_84)">
<circle cx="18" cy="18" r="18" fill="#D24C00"/>
<path d="M53.008 13.56V15.792H69.028V13.56H53.008ZM62.242 14.46L60.064 14.964C61.432 19.914 63.682 23.64 67.804 25.566C68.164 24.936 68.884 24 69.424 23.514C65.608 22.002 63.322 18.582 62.242 14.46ZM59.758 8.71802C59.704 13.596 60.028 20.436 52.648 23.73C53.278 24.198 53.944 24.972 54.286 25.566C62.008 21.84 62.044 14.208 62.134 8.71802H59.758Z" fill="current"/>
<path d="M87.172 11.832L85.75 10.5C85.408 10.59 84.418 10.662 83.914 10.662C82.978 10.662 75.346 10.662 74.212 10.662C73.474 10.662 72.718 10.572 72.016 10.464V12.984C72.862 12.894 73.474 12.858 74.212 12.858C75.346 12.858 82.51 12.858 83.608 12.858C83.14 13.74 81.736 15.324 80.278 16.206L82.15 17.7C83.932 16.44 85.642 14.154 86.488 12.75C86.65 12.498 86.992 12.066 87.172 11.832ZM79.846 14.244H77.236C77.326 14.838 77.344 15.306 77.344 15.882C77.344 18.834 76.912 20.724 74.644 22.308C73.978 22.812 73.33 23.118 72.736 23.316L74.842 25.026C79.738 22.38 79.846 18.708 79.846 14.244Z" fill="current"/>
<path d="M90.6904 11.778V14.388C91.3024 14.37 92.1304 14.334 92.8144 14.334C93.8224 14.334 99.3124 14.334 100.266 14.334C100.896 14.334 101.742 14.37 102.264 14.388V11.778C101.742 11.85 100.986 11.886 100.266 11.886C99.2764 11.886 94.3264 11.886 92.8144 11.886C92.1844 11.886 91.3564 11.85 90.6904 11.778ZM89.1784 20.598V23.352C89.8624 23.28 90.7264 23.226 91.4464 23.226C92.5804 23.226 100.644 23.226 101.778 23.226C102.3 23.226 103.11 23.28 103.758 23.352V20.598C103.146 20.652 102.372 20.706 101.778 20.706C100.644 20.706 92.5804 20.706 91.4464 20.706C90.7264 20.706 89.8804 20.634 89.1784 20.598Z" fill="current"/>
<path d="M120.822 10.77L118.14 9.85202C118.05 10.302 117.87 11.04 117.708 11.508C117.078 13.308 116.268 15.162 114.846 17.034C112.938 19.518 110.688 21.516 107.412 23.082L109.41 24.918C112.902 22.992 115.116 20.67 116.79 18.51C118.284 16.566 119.382 14.19 120.066 12.408C120.228 11.976 120.57 11.184 120.822 10.77ZM110.922 12.516L109.374 14.352C111.642 15.738 113.748 17.358 115.044 18.438C116.952 20.022 118.536 21.498 120.102 23.334L121.956 21.264C120.498 19.716 118.608 18.024 116.682 16.53C115.17 15.342 112.704 13.632 110.922 12.516Z" fill="current"/>
</g>
<defs>
<clipPath id="clip0_26_84">
<rect width="121.956" height="36" fill="white"/>
</clipPath>
</defs>
</svg>
