<svg width="24" height="24" viewBox="0 0 24 24" fill="none" xmlns="http://www.w3.org/2000/svg">
<rect width="24" height="24" fill="white"/>
<path d="M7.5 5.5H16.5V18H7.5V5.5Z" fill="#D24C00" fill-opacity="0.3"/>
<path d="M10 7.5C9.44772 7.5 9 7.94772 9 8.5C9 9.05228 9.44772 9.5 10 9.5H14C14.5523 9.5 15 9.05228 15 8.5C15 7.94772 14.5523 7.5 14 7.5H10Z" fill="#D24C00"/>
<path d="M9 12C9 11.4477 9.44772 11 10 11H14C14.5523 11 15 11.4477 15 12C15 12.5523 14.5523 13 14 13H10C9.44772 13 9 12.5523 9 12Z" fill="#D24C00"/>
<path d="M10 15C9.44772 15 9 15.4477 9 16C9 16.5523 9.44772 17 10 17H12C12.5523 17 13 16.5523 13 16C13 15.4477 12.5523 15 12 15H10Z" fill="#D24C00"/>
<path fill-rule="evenodd" clip-rule="evenodd" d="M6.5 2.5C5.39543 2.5 4.5 3.39543 4.5 4.5V19C4.5 20.1046 5.39543 21 6.5 21H17.5C18.6046 21 19.5 20.1046 19.5 19V4.5C19.5 3.39543 18.6046 2.5 17.5 2.5H6.5ZM6.5 4.5H17.5V19H6.5V4.5Z" fill="#D24C00"/>
</svg>
