<svg width="24" height="24" viewBox="0 0 24 24" fill="current" xmlns="http://www.w3.org/2000/svg">
<path fill-rule="evenodd" clip-rule="evenodd" d="M16.0491 16.4633C14.7873 17.4274 13.2105 18 11.5 18C7.35786 18 4 14.6421 4 10.5C4 6.35786 7.35786 3 11.5 3C15.6421 3 19 6.35786 19 10.5C19 12.2105 18.4274 13.7873 17.4633 15.0491L20.2071 17.7929C20.5976 18.1834 20.5976 18.8166 20.2071 19.2071C19.8166 19.5976 19.1834 19.5976 18.7929 19.2071L16.0491 16.4633ZM17 10.5C17 13.5376 14.5376 16 11.5 16C8.46243 16 6 13.5376 6 10.5C6 7.46243 8.46243 5 11.5 5C14.5376 5 17 7.46243 17 10.5Z" fill="current"/>
</svg>
