<svg width="24" height="24" viewBox="0 0 24 24" fill="none" xmlns="http://www.w3.org/2000/svg">
<path fill-rule="evenodd" clip-rule="evenodd" d="M8.76138 7.20229C7.36357 7.20229 6.33281 8.23185 6.33281 9.48309C6.33281 10.2664 6.6959 11.0388 7.5 11.9755C8.31109 12.9203 10.1523 14.7208 11.6387 16.0049L11.6397 16.0058L12.0018 16.3199L12.3608 16.0109C13.8469 14.7241 15.9501 12.921 16.7612 11.9755C17.5655 11.038 17.9286 10.2655 17.9286 9.48222C17.9286 8.23099 16.8962 7.26873 15.5 7.20142C14.5 7.15322 13.0204 8.34051 12.5328 8.88611L12 9.48222L11.4672 8.88611C10.9796 8.34051 9.83281 7.20229 8.76138 7.20229Z" fill="#D24C00" fill-opacity="0.3"/>
<path fill-rule="evenodd" clip-rule="evenodd" d="M8.4 6C6.44306 6 5 7.44277 5 9.19619C5 10.2938 5.50832 11.3763 6.63406 12.6889C7.76959 14.0129 9.41328 15.437 11.4941 17.2365L11.4956 17.2378L12.0025 17.6779L12.5051 17.2448L12.5061 17.244C14.5867 15.4408 16.2301 14.0151 17.3657 12.6901C18.4917 11.3764 19 10.2939 19 9.19619C19 7.44277 17.5569 6 15.6 6C14.4935 6 13.4286 6.49602 12.7459 7.26059L12 8.09595L11.2541 7.26059C10.5714 6.49602 9.5065 6 8.4 6ZM3 9.19619C3 6.24987 5.42894 4 8.4 4C9.72105 4 10.9985 4.45889 12 5.2344C13.0016 4.45889 14.279 4 15.6 4C18.5711 4 21 6.24987 21 9.19619C21 10.9824 20.1483 12.5168 18.8843 13.9916C17.6467 15.4356 15.901 16.9484 13.8962 18.6858L13.8149 18.7562L13.8127 18.7581L11.9975 20.3221L10.1242 18.696C8.11093 16.9549 6.35776 15.4389 5.11594 13.9909C3.85168 12.5169 3 10.9824 3 9.19619Z" fill="#D24C00"/>
</svg>
