<svg width="24" height="24" viewBox="0 0 24 24" fill="none" xmlns="http://www.w3.org/2000/svg">
<path d="M10.5 15.1246V8.89298C10.5 8.72948 10.6855 8.63506 10.8177 8.73129L15.2689 11.9718C15.3812 12.0535 15.378 12.222 15.2627 12.2994L10.8116 15.2906C10.6787 15.3799 10.5 15.2847 10.5 15.1246Z" fill="#616C7A"/>
<path fill-rule="evenodd" clip-rule="evenodd" d="M12 3C7.02944 3 3 7.02944 3 12C3 16.9706 7.02944 21 12 21C16.9706 21 21 16.9706 21 12C21 7.02944 16.9706 3 12 3ZM5 12C5 8.13401 8.13401 5 12 5C15.866 5 19 8.13401 19 12C19 15.866 15.866 19 12 19C8.13401 19 5 15.866 5 12Z" fill="#616C7A"/>
</svg>
